<svg width="500" xmlns="http://www.w3.org/2000/svg" height="500" id="screenshot-6c0c4372-1ec9-80fa-8006-0ab1c069d297" viewBox="0 0 500 500" xmlns:xlink="http://www.w3.org/1999/xlink" fill="none" version="1.1"><g id="shape-6c0c4372-1ec9-80fa-8006-0ab1c069d297" rx="0" ry="0"><g id="shape-6c0c4372-1ec9-80fa-8006-0ab1af02e6e4"><g class="fills" id="fills-6c0c4372-1ec9-80fa-8006-0ab1af02e6e4"><path d="M96.965,197.357C96.965,197.357,86.659,185.758,74.826,181.703C57.272,175.689,23.975,181.459,11.176,202.575C5.294,212.279,0.794,218.443,0.106,228.665C-1.652,254.788,18.440,283.780,58.222,291.281C88.058,296.907,121.362,313.841,144.011,338.243C163.377,359.108,173.529,387.491,173.529,418.759C173.529,448.436,186.315,466.367,199.359,479.128C216.130,495.535,233.606,500.000,249.172,500.000C276.846,500.000,328.504,476.156,328.504,418.759C328.504,361.361,361.713,324.835,394.921,309.181C403.399,305.185,443.324,291.488,456.727,286.063C498.666,269.089,514.551,232.098,484.401,197.357C474.458,185.900,465.350,181.840,453.960,179.094C449.609,178.046,444.554,176.291,440.123,176.485C434.941,176.712,430.278,179.154,423.518,181.703C407.649,187.688,397.663,201.850,389.281,219.289C384.775,228.665,382.852,232.867,379.240,239.101C375.395,245.737,370.938,252.146,367.247,257.001C356.122,271.638,336.386,284.116,315.590,291.281C290.491,299.929,264.047,301.717,251.940,301.717C237.238,301.717,207.789,301.995,179.987,291.281C165.923,285.861,155.081,278.236,141.244,265.191C134.409,258.747,126.090,246.782,119.104,233.883C111.668,220.153,105.527,205.429,96.965,197.357ZM389.281,219.289" style="fill: currentColor; fill-opacity: 1;"/></g></g><g id="shape-6c0c4372-1ec9-80fa-8006-0ab1af02e6e5"><g class="fills" id="fills-6c0c4372-1ec9-80fa-8006-0ab1af02e6e5"><ellipse cx="245.00000000186265" cy="93.13725490123034" rx="94.99999999813735" ry="93.13725490123034" transform="matrix(1.000000, 0.000000, 0.000000, 1.000000, 0.000000, 0.000000)" style="fill: currentColor; fill-opacity: 1;"/></g></g></g></svg>