<svg width="500" xmlns="http://www.w3.org/2000/svg" height="461" id="screenshot-6c0c4372-1ec9-80fa-8006-0ab1d148e506" viewBox="0 0 500 461" xmlns:xlink="http://www.w3.org/1999/xlink" fill="none" version="1.1"><g id="shape-6c0c4372-1ec9-80fa-8006-0ab1d148e506" rx="0" ry="0"><g id="shape-6c0c4372-1ec9-80fa-8006-0ab1d148e507"><g class="fills" id="fills-6c0c4372-1ec9-80fa-8006-0ab1d148e507"><path d="M96.965,158.357C96.965,158.357,86.659,146.758,74.826,142.703C57.272,136.689,23.975,142.459,11.176,163.575C5.294,173.279,0.794,179.443,0.106,189.665C-1.652,215.788,18.440,244.780,58.222,252.281C88.058,257.907,121.362,274.841,144.011,299.243C163.377,320.108,173.529,348.491,173.529,379.759C173.529,409.436,186.315,427.367,199.359,440.128C216.130,456.535,233.606,461.000,249.172,461.000C276.846,461.000,328.504,437.156,328.504,379.759C328.504,322.361,361.713,285.835,394.921,270.181C403.399,266.185,443.324,252.488,456.727,247.063C498.666,230.089,514.551,193.098,484.401,158.357C474.458,146.900,465.350,142.840,453.960,140.094C449.609,139.046,444.554,137.291,440.123,137.485C434.941,137.712,430.278,140.154,423.518,142.703C407.649,148.688,397.663,162.850,389.281,180.289C384.775,189.665,382.852,193.867,379.240,200.101C375.395,206.737,370.938,213.146,367.247,218.001C356.122,232.638,336.386,245.116,315.590,252.281C290.491,260.929,264.047,262.717,251.940,262.717C237.238,262.717,207.789,262.995,179.987,252.281C165.923,246.861,155.081,239.236,141.244,226.191C134.409,219.747,126.090,207.782,119.104,194.883C111.668,181.153,105.527,166.429,96.965,158.357ZM389.281,180.289" style="fill: rgb(26, 45, 91); fill-opacity: 1;"/></g></g><g id="shape-6c0c4372-1ec9-80fa-8006-0ab1d148e508"><g class="fills" id="fills-6c0c4372-1ec9-80fa-8006-0ab1d148e508"><ellipse cx="250.0000000037253" cy="100" rx="100" ry="100" transform="matrix(1.000000, 0.000000, 0.000000, 1.000000, 0.000000, 0.000000)" style="fill: rgb(26, 45, 91); fill-opacity: 1;"/></g></g></g></svg>